# xmcd
#
# Track frame offsets:
#	150
#	20343
#	42424
#	63381
#	77956
#	98719
#	131091
#	151693
#	169058
#	190552
#	204728
#	224185
#
# Disc length: 3381 seconds
#
# Revision: 1
# Processed by: cddbd v1.4PL0 Copyright (c) Steve Scherf et al.
# Submitted via: audiograbber 1.82.02
#
DISCID=a60d330c
DTITLE=Various Artist - Roots 'n' Conn-EX-tions (aka 'Savoyians')
DYEAR=2001
DGENRE=Blues
TTITLE0=Bob Hall - Beehive Blues
TTITLE1=Sugarcane featuring John O' Leary - Blues Train Leavin'
TTITLE2=Uncensored featuring Ray Chappell - Keep These Blues Alive
TTITLE3=Leo Manning - Time To Reflect
TTITLE4=Jackie Lynton - Ah So Nice
TTITLE5=Jackie Lynton with Mike Simmonds - I Ain't Got You
TTITLE6=Double - Henry - Pyle and Gunn - Rut +
TTITLE7=Bob Hall - After Hours Blues
TTITLE8=Sugarcane featuring John O' Leary - Red Alert
TTITLE9=Leo Manning - Lonesome Tomcat
TTITLE10=Double - Henry - Pyle and Gunn - The Thrill
TTITLE11=Uncensored featuring Ray Chappell - Kool Blues
EXTD=
EXTT0=
EXTT1=
EXTT2=
EXTT3=
EXTT4=
EXTT5=
EXTT6=
EXTT7=
EXTT8=
EXTT9=
EXTT10=
EXTT11=
PLAYORDER=
